<svg xmlns="http://www.w3.org/2000/svg" viewBox="0 0 512 512"><path fill="#D1A054" d="M256 160c13.3 0 24-10.7 24-24c0-22.1-17.9-40-40-40s-40 17.9-40 40c0 13.3 10.7 24 24 24s24-10.7 24-24zm128 0c13.3 0 24-10.7 24-24c0-22.1-17.9-40-40-40s-40 17.9-40 40c0 13.3 10.7 24 24 24s24-10.7 24-24zm-192 128c13.3 0 24-10.7 24-24c0-22.1-17.9-40-40-40s-40 17.9-40 40c0 13.3 10.7 24 24 24s24-10.7 24-24zm128 0c13.3 0 24-10.7 24-24c0-22.1-17.9-40-40-40s-40 17.9-40 40c0 13.3 10.7 24 24 24s24-10.7 24-24zm-64 64c-35.3 0-64 28.7-64 64s28.7 64 64 64s64-28.7 64-64s-28.7-64-64-64z"/></svg>
